<svg xmlns="http://www.w3.org/2000/svg" version="1.1" xmlns:xlink="http://www.w3.org/1999/xlink" xmlns:svgjs="http://svgjs.dev/svgjs" width="1000" height="280" viewBox="0 0 1000 280"><g transform="matrix(1,0,0,1,-0.6060606060606233,0.2063926851788267)"><svg viewBox="0 0 396 111" data-background-color="#90adbb" preserveAspectRatio="xMidYMid meet" height="280" width="1000" xmlns="http://www.w3.org/2000/svg" xmlns:xlink="http://www.w3.org/1999/xlink"><g id="tight-bounds" transform="matrix(1,0,0,1,0.2400000000000091,-0.08181995733875169)"><svg viewBox="0 0 395.52 111.16363991467749" height="111.16363991467749" width="395.52"><g><svg viewBox="0 0 573.6884624293766 161.23912232176428" height="111.16363991467749" width="395.52"><g transform="matrix(1,0,0,1,178.1684624293766,47.379965448737096)"><svg viewBox="0 0 395.52 66.4791914242901" height="66.4791914242901" width="395.52"><g id="textblocktransform"><svg viewBox="0 0 395.52 66.4791914242901" height="66.4791914242901" width="395.52" id="textblock"><g><svg viewBox="0 0 395.52 35.855699240101316" height="35.855699240101316" width="395.52"><g transform="matrix(1,0,0,1,0,0)"><svg width="395.52" viewBox="4 -33.25 375.010009765625 34" height="35.855699240101316" data-palette-color="#f6f6f6"><path d="M20.9-6.25L20.9-6.25Q20.9 0.75 12.45 0.75 4 0.75 4-6.25L4-6.25 4-10.5 7.5-10.5 7.5-6.05Q7.5-4.25 8.75-3.25 10-2.25 12.45-2.25 14.9-2.25 16.15-3.25 17.4-4.25 17.4-5.98 17.4-7.7 17.03-8.72 16.65-9.75 15.5-10.9L15.5-10.9 6.7-19.5Q5.15-21.05 4.58-22.53 4-24 4-26.25L4-26.25Q4-29.6 6.08-31.43 8.15-33.25 12.35-33.25L12.35-33.25Q20.4-33.25 20.4-26.25L20.4-26.25 20.4-22 16.9-22 16.9-26.45Q16.9-28.25 15.73-29.25 14.55-30.25 12.2-30.25 9.85-30.25 8.68-29.25 7.5-28.25 7.5-26.5 7.5-24.75 7.85-23.75 8.2-22.75 9.4-21.65L9.4-21.65 18.35-13.05Q19.8-11.45 20.35-9.98 20.9-8.5 20.9-6.25ZM42.15-6.25L42.15-6.25 42.15-9 45.65-9 45.65-6.25Q45.65-2.9 43.6-1.07 41.55 0.75 37.45 0.75 33.35 0.75 31.25-1.07 29.15-2.9 29.15-6.25L29.15-6.25 29.15-26.25Q29.15-29.6 31.2-31.43 33.25-33.25 37.35-33.25 41.45-33.25 43.55-31.43 45.65-29.6 45.65-26.25L45.65-26.25 45.65-21.5 42.15-21.5 42.15-26.25Q42.15-30.25 37.4-30.25 32.65-30.25 32.65-26.25L32.65-26.25 32.65-6.25Q32.65-2.25 37.4-2.25 42.15-2.25 42.15-6.25ZM58.9-3L61.4-3 61.4 0 52.9 0 52.9-3 55.4-3 55.4-29.5 52.9-29.5 52.9-32.5 61.4-32.5 61.4-29.5 58.9-29.5 58.9-3ZM84.64-3L84.64 0 69.89 0 69.89-32.5 84.14-32.5 84.14-29.5 73.39-29.5 73.39-18 82.14-18 82.14-15 73.39-15 73.39-3 84.64-3ZM95.64-25L95.64 0 92.14 0 92.14-32.5 95.64-32.5 106.49-7.5 106.49-32.5 109.99-32.5 109.99 0 106.49 0 95.64-25ZM132.24-6.25L132.24-6.25 132.24-9 135.74-9 135.74-6.25Q135.74-2.9 133.69-1.07 131.64 0.75 127.54 0.75 123.44 0.75 121.34-1.07 119.24-2.9 119.24-6.25L119.24-6.25 119.24-26.25Q119.24-29.6 121.29-31.43 123.34-33.25 127.44-33.25 131.54-33.25 133.64-31.43 135.74-29.6 135.74-26.25L135.74-26.25 135.74-21.5 132.24-21.5 132.24-26.25Q132.24-30.25 127.49-30.25 122.74-30.25 122.74-26.25L122.74-26.25 122.74-6.25Q122.74-2.25 127.49-2.25 132.24-2.25 132.24-6.25ZM159.24-3L159.24 0 144.49 0 144.49-32.5 158.74-32.5 158.74-29.5 147.99-29.5 147.99-18 156.74-18 156.74-15 147.99-15 147.99-3 159.24-3ZM194.13-6.25L194.13-6.25Q194.13 0.75 185.68 0.75 177.23 0.75 177.23-6.25L177.23-6.25 177.23-10.5 180.73-10.5 180.73-6.05Q180.73-4.25 181.98-3.25 183.23-2.25 185.68-2.25 188.13-2.25 189.38-3.25 190.63-4.25 190.63-5.98 190.63-7.7 190.26-8.72 189.88-9.75 188.73-10.9L188.73-10.9 179.93-19.5Q178.38-21.05 177.81-22.53 177.23-24 177.23-26.25L177.23-26.25Q177.23-29.6 179.31-31.43 181.38-33.25 185.58-33.25L185.58-33.25Q193.63-33.25 193.63-26.25L193.63-26.25 193.63-22 190.13-22 190.13-26.45Q190.13-28.25 188.96-29.25 187.78-30.25 185.43-30.25 183.08-30.25 181.91-29.25 180.73-28.25 180.73-26.5 180.73-24.75 181.08-23.75 181.43-22.75 182.63-21.65L182.63-21.65 191.58-13.05Q193.03-11.45 193.58-9.98 194.13-8.5 194.13-6.25ZM216.13-6.25L216.13-6.25 216.13-32.5 219.63-32.5 219.63-6.25Q219.63-2.9 217.5-1.07 215.38 0.75 211.15 0.75 206.93 0.75 204.78-1.07 202.63-2.9 202.63-6.25L202.63-6.25 202.63-32.5 206.13-32.5 206.13-6.25Q206.13-2.25 211.13-2.25 216.13-2.25 216.13-6.25ZM232.13-10L232.13 0 228.63 0 228.63-32.5 236.18-32.5Q240.08-32.5 242.1-30.65 244.13-28.8 244.13-25.5L244.13-25.5 244.13-17Q244.13-13.65 242.13-11.83 240.13-10 236.18-10L236.18-10 232.13-10ZM240.63-17L240.63-17 240.63-25.5Q240.63-27.4 239.48-28.45 238.33-29.5 236.18-29.5L236.18-29.5 232.13-29.5 232.13-13 236.18-13Q240.63-13 240.63-17ZM255.12-10L255.12 0 251.62 0 251.62-32.5 259.17-32.5Q263.07-32.5 265.1-30.65 267.12-28.8 267.12-25.5L267.12-25.5 267.12-17Q267.12-13.65 265.12-11.83 263.12-10 259.17-10L259.17-10 255.12-10ZM263.62-17L263.62-17 263.62-25.5Q263.62-27.4 262.47-28.45 261.32-29.5 259.17-29.5L259.17-29.5 255.12-29.5 255.12-13 259.17-13Q263.62-13 263.62-17ZM287.77 0L275.12 0 275.12-32.5 278.62-32.5 278.62-3 287.77-3 287.77 0ZM299.27-11.6L299.27 0 295.77 0 295.77-11.65 287.52-32.5 291.22-32.5 297.52-15.75 303.82-32.5 307.52-32.5 299.27-11.6ZM337.51-6.25L337.51-6.25 337.51-9 341.01-9 341.01-6.25Q341.01-2.9 338.96-1.07 336.91 0.75 332.81 0.75 328.71 0.75 326.61-1.07 324.51-2.9 324.51-6.25L324.51-6.25 324.51-26.25Q324.51-29.6 326.56-31.43 328.61-33.25 332.71-33.25 336.81-33.25 338.91-31.43 341.01-29.6 341.01-26.25L341.01-26.25 341.01-21.5 337.51-21.5 337.51-26.25Q337.51-30.25 332.76-30.25 328.01-30.25 328.01-26.25L328.01-26.25 328.01-6.25Q328.01-2.25 332.76-2.25 337.51-2.25 337.51-6.25ZM366.01-26.25L366.01-26.25 366.01-6.25Q366.01-2.9 363.89-1.07 361.76 0.75 357.54 0.75 353.31 0.75 351.16-1.07 349.01-2.9 349.01-6.25L349.01-6.25 349.01-26.25Q349.01-29.6 351.14-31.43 353.26-33.25 357.49-33.25 361.71-33.25 363.86-31.43 366.01-29.6 366.01-26.25ZM362.51-6.25L362.51-6.25 362.51-26.25Q362.51-30.25 357.51-30.25 352.51-30.25 352.51-26.25L352.51-26.25 352.51-6.25Q352.51-2.25 357.51-2.25 362.51-2.25 362.51-6.25ZM379.01-5.5L379.01 0 374.51 0 374.51-5.5 379.01-5.5Z" opacity="1" transform="matrix(1,0,0,1,0,0)" fill="#f6f6f6" class="undefined-text-0" data-fill-palette-color="primary" id="text-0"></path></svg></g></svg></g><g transform="matrix(1,0,0,1,0,44.320369293907476)"><svg viewBox="0 0 101.07483189139997 22.158822130382614" height="22.158822130382614" width="101.07483189139997"><g transform="matrix(1,0,0,1,0,0)"><svg width="101.07483189139997" viewBox="1.7000000476837158 -38.29999923706055 178.33999633789062 39.099998474121094" height="22.158822130382614" data-palette-color="#f6f6f6"><path d="M33.6-33.4L42.9-33.4 42.9-32.25 38.65-31.75 39.75-1.5 43.6-1.2 43.6 0 30.9 0 30.9-1.05 34.7-1.5 33.4-27.3 23.35 0 20.7 0 8.7-27.05 7.75-2.45 11.95-1.2 11.95 0 1.7 0 1.7-1.2 5.85-2.65 6.85-31.75 2.6-32.25 2.6-33.4 11.45-33.4 23.35-5.55 33.6-33.4ZM58.25 0.55Q53.1 0.55 49.95-2.95 46.8-6.45 46.8-12.2 46.8-17.95 50.12-21.45 53.45-24.95 58.5-24.95 63.55-24.95 66.05-22.68 68.55-20.4 68.55-16.35L68.55-16.35Q68.55-15.15 68.35-13.95L68.35-13.95 52.2-13.95 52.2-12.2Q52.2-6.6 53.8-3.73 55.4-0.85 59.05-0.85L59.05-0.85Q64.2-0.85 67-5.35L67-5.35Q68.1-5 68.1-4.3L68.1-4.3Q68.1-3.05 65.8-1.4L65.8-1.4Q64.7-0.6 62.7-0.03 60.7 0.55 58.25 0.55L58.25 0.55ZM63.8-17.4L63.8-17.4Q63.8-19.7 62.85-21.35L62.85-21.35Q61.55-23.55 58.65-23.55L58.65-23.55Q53.25-23.55 52.35-15.75L52.35-15.75 63.7-15.75Q63.8-16.6 63.8-17.4ZM92.05-7.65L92.05-7.65 92.05-21.4Q89.65-23.25 86.1-23.25L86.1-23.25Q81.65-23.25 80-19.6L80-19.6Q78.65-16.5 78.65-11.15L78.65-11.15Q78.65-0.8 84.25-0.8L84.25-0.8Q87.4-0.8 89.72-3.2 92.05-5.6 92.05-7.65ZM83.3 0.75L83.3 0.75Q79 0.75 76.05-2.33 73.1-5.4 73.1-11.53 73.1-17.65 76.67-21.2 80.25-24.75 86.2-24.75L86.2-24.75Q89.3-24.75 92.05-23.3L92.05-23.3 92.05-35.9 87.65-36.1 87.6-37.25 96.85-38.3 96.85-1.15 101.1-0.95 101.15 0.2 92.3 0.8 92.4-4 92.1-4Q90.9-1.75 88.45-0.5 86 0.75 83.3 0.75ZM111.94-32.58Q111.94-31.35 111.09-30.48 110.24-29.6 108.97-29.6 107.69-29.6 106.84-30.45 105.99-31.3 105.99-32.58 105.99-33.85 106.84-34.73 107.69-35.6 108.94-35.6 110.19-35.6 111.07-34.7 111.94-33.8 111.94-32.58ZM114.94 0L103.44 0 103.44-1.2 106.74-1.45 106.74-22.7 102.34-22.85 102.34-24 111.64-24.65 111.64-1.45 114.94-1.2 114.94 0ZM131.04-24.95L131.04-24.95Q133.84-24.95 136.44-23.75L136.44-23.75Q137.89-23.1 138.77-21.75 139.64-20.4 139.64-18.6 139.64-16.8 138.04-16.15L138.04-16.15Q137.39-15.9 136.67-15.9 135.94-15.9 135.19-16.4L135.19-16.4Q135.39-17.45 135.39-18.88 135.39-20.3 134.49-21.6L134.49-21.6Q133.19-23.55 130.79-23.55L130.79-23.55Q123.84-23.55 123.84-12.1L123.84-12.1Q123.84-6.5 125.47-3.68 127.09-0.85 130.74-0.85L130.74-0.85Q135.39-0.85 138.19-5.35L138.19-5.35Q139.29-5 139.29-4.28 139.29-3.55 138.37-2.48 137.44-1.4 135.17-0.43 132.89 0.55 129.94 0.55L129.94 0.55Q124.79 0.55 121.62-2.95 118.44-6.45 118.44-12.2 118.44-17.95 121.87-21.45 125.29-24.95 131.04-24.95ZM148.44-5.4L148.44-5.4Q148.44-2.15 151.09-1.55L151.09-1.55Q151.69-1.4 152.24-1.4L152.24-1.4Q154.14-1.4 156.19-3.03 158.24-4.65 158.34-7.4L158.34-7.4 158.34-11.7Q148.44-11.6 148.44-5.4ZM150.44 0.6L150.44 0.6Q147.59 0.6 145.56-0.98 143.54-2.55 143.54-5.4L143.54-5.4Q143.59-9.25 147.41-11.15 151.24-13.05 158.34-13.05L158.34-13.05 158.34-17.35Q158.34-23.7 153.74-23.7L153.74-23.7Q151.39-23.7 149.94-21.75L149.94-21.75Q148.94-20.4 148.94-18.4L148.94-18.4Q148.94-17.55 149.14-16.6L149.14-16.6Q148.44-16.1 147.71-16.1 146.99-16.1 146.29-16.4L146.29-16.4Q144.69-17 144.69-18.7L144.69-18.7Q144.69-21 146.34-22.5L146.34-22.5Q149.04-24.95 153.79-24.95 158.54-24.95 160.69-22.93 162.84-20.9 162.84-16.55L162.84-16.55 162.84-1.4 167.04-1.2 167.09-0.05 158.74 0.55 158.29-3.9Q155.99 0.6 150.44 0.6ZM180.04-1.2L180.04 0 168.54 0 168.54-1.2 171.84-1.45 171.84-35.9 167.39-36.1 167.39-37.25 176.74-38.3 176.74-1.45 180.04-1.2Z" opacity="1" transform="matrix(1,0,0,1,0,0)" fill="#f6f6f6" class="undefined-text-1" data-fill-palette-color="secondary" id="text-1"></path></svg></g></svg></g></svg></g></svg></g><g><svg viewBox="0 0 161.23912232176428 161.23912232176428" height="161.23912232176428" width="161.23912232176428"><g><svg></svg></g><g id="icon-0"><svg viewBox="0 0 161.23912232176428 161.23912232176428" height="161.23912232176428" width="161.23912232176428"><g><path d="M0 80.62c0-44.525 36.095-80.62 80.62-80.62 44.525 0 80.62 36.095 80.619 80.62 0 44.525-36.095 80.62-80.619 80.619-44.525 0-80.62-36.095-80.62-80.619zM80.62 158.006c42.739 0 77.386-34.647 77.386-77.386 0-42.739-34.647-77.386-77.386-77.387-42.739 0-77.386 34.647-77.386 77.387 0 42.739 34.647 77.386 77.386 77.386z" data-fill-palette-color="accent" fill="#f6f6f6" stroke="transparent"></path></g><g transform="matrix(1,0,0,1,34.46512323465221,34.54130895477254)"><svg viewBox="0 0 92.30887585245986 92.1565044122192" height="92.1565044122192" width="92.30887585245986"><g><svg xmlns="http://www.w3.org/2000/svg" xmlns:xlink="http://www.w3.org/1999/xlink" version="1.1" x="0" y="0" viewBox="0 0.20499849319458008 99.95999908447266 99.79499816894531" enable-background="new 0 0 100 100" xml:space="preserve" height="92.1565044122192" width="92.30887585245986" class="icon-s-0" data-fill-palette-color="accent" id="s-0"><g fill="#f6f6f6" data-fill-palette-color="accent"><circle cx="49.98" cy="50.02" r="8.3" fill="#f6f6f6" data-fill-palette-color="accent"></circle><path d="M57.492 7.246c0 3.889-3.152 26.404-7.041 26.404-3.888 0-7.041-22.516-7.041-26.404s3.153-7.041 7.041-7.041C54.34 0.205 57.492 3.357 57.492 7.246z" fill="#f6f6f6" data-fill-palette-color="accent"></path><path d="M43.41 92.958c0-3.889 3.153-26.403 7.041-26.403 3.889 0 7.041 22.515 7.041 26.403S54.34 100 50.451 100C46.563 100 43.41 96.847 43.41 92.958z" fill="#f6f6f6" data-fill-palette-color="accent"></path><path d="M85.757 24.872c-2.791 2.707-21.142 16.131-23.849 13.341-2.708-2.79 11.248-20.736 14.038-23.445 2.79-2.707 7.249-2.643 9.956 0.148C88.612 17.705 88.546 22.163 85.757 24.872z" fill="#f6f6f6" data-fill-palette-color="accent"></path><path d="M14.773 75.181c2.79-2.708 21.14-16.129 23.849-13.342 2.707 2.792-11.249 20.736-14.039 23.445-2.789 2.71-7.247 2.645-9.955-0.146C11.919 82.348 11.985 77.892 14.773 75.181z" fill="#f6f6f6" data-fill-palette-color="accent"></path><path d="M74.163 86.315c-2.63-2.866-15.548-21.574-12.685-24.207C64.342 59.479 81.9 73.92 84.53 76.785c2.633 2.861 2.445 7.316-0.416 9.947C81.25 89.364 76.797 89.177 74.163 86.315z" fill="#f6f6f6" data-fill-palette-color="accent"></path><path d="M24.717 14.668c2.716 2.781 16.189 21.094 13.407 23.809-2.781 2.717-20.767-11.188-23.483-13.973-2.717-2.779-2.664-7.239 0.12-9.957C17.542 11.832 22.002 11.885 24.717 14.668z" fill="#f6f6f6" data-fill-palette-color="accent"></path><path d="M7.041 42.756c3.89 0 26.403 3.154 26.403 7.042 0 3.889-22.514 7.042-26.403 7.042C3.153 56.84 0 53.687 0 49.798 0 45.91 3.153 42.756 7.041 42.756z" fill="#f6f6f6" data-fill-palette-color="accent"></path><path d="M92.918 57.059c-3.889 0-26.402-3.15-26.402-7.039s22.514-7.041 26.402-7.041c3.89 0 7.042 3.152 7.042 7.041S96.808 57.059 92.918 57.059z" fill="#f6f6f6" data-fill-palette-color="accent"></path></g></svg></g></svg></g></svg></g></svg></g></svg></g><defs></defs></svg><rect width="395.52" height="111.16363991467749" fill="none" stroke="none" visibility="hidden"></rect></g></svg></g></svg>